<?xml version="1.0" encoding="UTF-8" standalone="no"?>
<svg
   xmlns:dc="http://purl.org/dc/elements/1.1/"
   xmlns:cc="http://creativecommons.org/ns#"
   xmlns:rdf="http://www.w3.org/1999/02/22-rdf-syntax-ns#"
   xmlns:svg="http://www.w3.org/2000/svg"
   xmlns="http://www.w3.org/2000/svg"
   version="1.1"
   id="svg2"
   viewBox="0 0 48 48"
   height="48"
   width="48">
  <defs
     id="defs4" />
  <metadata
     id="metadata7">
    <rdf:RDF>
      <cc:Work
         rdf:about="">
        <dc:format>image/svg+xml</dc:format>
        <dc:type
           rdf:resource="http://purl.org/dc/dcmitype/StillImage" />
        <dc:title></dc:title>
      </cc:Work>
    </rdf:RDF>
  </metadata>
  <g
     style="display:inline;opacity:1"
     transform="translate(0,-1004.3622)"
     id="layer1">
    <path
       id="rect4177"
       transform="translate(0,1004.3622)"
       d="M 13.091797 0 A 21.5 21.5 0 0 0 3.0019531 14 L 3 14 L 3 14.009766 L 3 23 L 11.8125 23 L 12 23 L 12 21 L 14 21 L 14 48 L 23 48 L 23 14 L 14 14 L 12 14 L 11.828125 14 A 13 13 0 0 1 17.507812 7.2558594 L 13.318359 0 L 13.091797 0 z M 34.681641 0 L 30.494141 7.2519531 A 13 13 0 0 1 36.1875 14 L 36 14 L 34 14 L 25 14 L 25 48 L 34 48 L 34 21 L 36 21 L 36 23 L 36.179688 23 L 44.998047 23 L 45 23 L 45 22.990234 L 45 14 L 45 13.947266 A 21.5 21.5 0 0 0 34.904297 0 L 34.681641 0 z M 7.5 15 A 2.5 2.5 0 0 1 10 17.5 A 2.5 2.5 0 0 1 7.5 20 A 2.5 2.5 0 0 1 5 17.5 A 2.5 2.5 0 0 1 7.5 15 z M 40.5 15 A 2.5 2.5 0 0 1 43 17.5 A 2.5 2.5 0 0 1 40.5 20 A 2.5 2.5 0 0 1 38 17.5 A 2.5 2.5 0 0 1 40.5 15 z "
       style="fill:#000000;fill-opacity:1;stroke:none" />
  </g>
</svg>
